<?xml version="1.0" encoding="UTF-8"?>
<svg id="trailblazers-logomark" xmlns="http://www.w3.org/2000/svg" version="1.1" viewBox="0 0 1080 1080">
  <defs>
    <style>
      .blaze {
        fill: #2e6833;
        stroke-width: 0px;
      }
    </style>
  </defs>
  <path class="blaze" d="M598.6,1080c-.9-.8,170-47,109-143.5-31.9-50.4-199.3-80-265.1-98.9-34.4-9.9-14.7-28-8.9-33.5,15.5-14.8,33.4-27,48.9-41.7,25.8-24.5,18.9-65.3-57.9-65.3,60.1,15.2,50.3,35.9,27.5,49.3-66.1,38.5-179.7,77.4-130.3,91.7,273.3,79.3,237.8,176.4,35.7,195.3-154.2,19.5-371.1-273-196-543.3-28.2,113.3,32.8,185.6,126.8,154.8,64-21,66-87.5,46-129.5-22.6-47.4-61.9-42.3-96.1-117.3-33.3-76.1-2.1-181.4,76.4-221.3-66.7,131.3,110.3,235.3,153.7,151.4,54.1-104.7-157.7-167.4,58.9-328-79.3,184.3,67.4,156.2,150.1,312.6,107.7,203.7-68.5,233.1-73.8,351.9-2.6,59.3,43.5,84.1,102.1,74.7,165.3-42.1,111.4-263.5,65.2-346,113,91.9,219.5,219.8,211.5,374.1-13.8,202.8-190.9,313-383.8,312.7Z"/>
</svg>